HIERARCHY
ROOT hip
{
  OFFSET 0 0 0
  CHANNELS 6 Xposition Yposition Zposition Zrotation Yrotation Xrotation
  JOINT abdomen
  {
    OFFSET 0 20.6881 -0.73152
    CHANNELS 3 Zrotation Xrotation Yrotation
    JOINT chest
    {
      OFFSET 0 11.7043 -0.48768
      CHANNELS 3 Zrotation Xrotation Yrotation
      JOINT neck
      {
        OFFSET 0 22.1894 -2.19456
        CHANNELS 3 Zrotation Xrotation Yrotation
        JOINT head
        {
          OFFSET -0.24384 7.07133 1.2192
          CHANNELS 3 Zrotation Xrotation Yrotation
          JOINT leftEye
          {
            OFFSET 4.14528 8.04674 8.04672
            CHANNELS 3 Zrotation Xrotation Yrotation
            End Site
            {
              OFFSET 1 0 0
            }
          }
          JOINT rightEye
          {
            OFFSET -3.6576 8.04674 8.04672
            CHANNELS 3 Zrotation Xrotation Yrotation
            End Site
            {
              OFFSET 1 0 0
            }
          }
        }
      }
      JOINT rCollar
      {
        OFFSET -2.68224 19.2634 -4.8768
        CHANNELS 3 Zrotation Xrotation Yrotation
        JOINT rShldr
        {
          OFFSET -8.77824 -1.95073 1.46304
          CHANNELS 3 Zrotation Xrotation Yrotation
          JOINT rForeArm
          {
            OFFSET -28.1742 -1.7115 0.48768
            CHANNELS 3 Zrotation Xrotation Yrotation
            JOINT rHand
            {
              OFFSET -22.5879 0.773209 7.07136
              CHANNELS 3 Zrotation Xrotation Yrotation
              JOINT rThumb1
              {
                OFFSET -1.2192 -0.487915 3.41376
                CHANNELS 3 Zrotation Xrotation Yrotation
                JOINT rThumb2
                {
                  OFFSET -3.37035 -0.52449 3.41376
                  CHANNELS 3 Zrotation Xrotation Yrotation
                  End Site
                  {
                    OFFSET -1.78271 -1.18214 1.43049
                  }
                }
              }
              JOINT rIndex1
              {
                OFFSET -7.75947 0.938293 5.60832
                CHANNELS 3 Zrotation Xrotation Yrotation
                JOINT rIndex2
                {
                  OFFSET -2.54057 -0.884171 1.56538
                  CHANNELS 3 Zrotation Xrotation Yrotation
                  End Site
                  {
                    OFFSET -1.62519 -0.234802 1.16502
                  }
                }
              }
              JOINT rMid1
              {
                OFFSET -8.24714 1.18213 3.41376
                CHANNELS 3 Zrotation Xrotation Yrotation
                JOINT rMid2
                {
                  OFFSET -3.10165 -0.590103 1.0647
                  CHANNELS 3 Zrotation Xrotation Yrotation
                  End Site
                  {
                    OFFSET -2.48547 -0.328903 0.83742
                  }
                }
              }
              JOINT rRing1
              {
                OFFSET -8.82822 0.546677 1.51678
                CHANNELS 3 Zrotation Xrotation Yrotation
                JOINT rRing2
                {
                  OFFSET -2.60934 -0.819778 -0.0198488
                  CHANNELS 3 Zrotation Xrotation Yrotation
                  End Site
                  {
                    OFFSET -2.33842 -0.294052 0.168128
                  }
                }
              }
              JOINT rPinky1
              {
                OFFSET -8.27202 -0.0477905 -0.4584
                CHANNELS 3 Zrotation Xrotation Yrotation
                JOINT rPinky2
                {
                  OFFSET -1.82734 -0.647385 -0.700984
                  CHANNELS 3 Zrotation Xrotation Yrotation
                  End Site
                  {
                    OFFSET -1.69225 -0.51767 -0.607171
                  }
                }
              }
            }
          }
        }
      }
      JOINT lCollar
      {
        OFFSET 2.68224 19.2634 -4.8768
        CHANNELS 3 Zrotation Xrotation Yrotation
        JOINT lShldr
        {
          OFFSET 8.77824 -1.95073 1.46304
          CHANNELS 3 Zrotation Xrotation Yrotation
          JOINT lForeArm
          {
            OFFSET 28.1742 -1.7115 0.48768
            CHANNELS 3 Zrotation Xrotation Yrotation
            JOINT lHand
            {
              OFFSET 22.5879 0.773209 7.07136
              CHANNELS 3 Zrotation Xrotation Yrotation
              JOINT lThumb1
              {
                OFFSET 1.2192 -0.487915 3.41376
                CHANNELS 3 Zrotation Xrotation Yrotation
                JOINT lThumb2
                {
                  OFFSET 3.37035 -0.52449 3.41376
                  CHANNELS 3 Zrotation Xrotation Yrotation
                  End Site
                  {
                    OFFSET 1.78271 -1.18214 1.43049
                  }
                }
              }
              JOINT lIndex1
              {
                OFFSET 7.75947 0.938293 5.60832
                CHANNELS 3 Zrotation Xrotation Yrotation
                JOINT lIndex2
                {
                  OFFSET 2.54057 -0.884171 1.56538
                  CHANNELS 3 Zrotation Xrotation Yrotation
                  End Site
                  {
                    OFFSET 1.62519 -0.234802 1.16502
                  }
                }
              }
              JOINT lMid1
              {
                OFFSET 8.24714 1.18213 3.41376
                CHANNELS 3 Zrotation Xrotation Yrotation
                JOINT lMid2
                {
                  OFFSET 3.10165 -0.590103 1.0647
                  CHANNELS 3 Zrotation Xrotation Yrotation
                  End Site
                  {
                    OFFSET 2.48547 -0.328903 0.83742
                  }
                }
              }
              JOINT lRing1
              {
                OFFSET 8.82822 0.546677 1.51678
                CHANNELS 3 Zrotation Xrotation Yrotation
                JOINT lRing2
                {
                  OFFSET 2.60934 -0.819778 -0.0198488
                  CHANNELS 3 Zrotation Xrotation Yrotation
                  End Site
                  {
                    OFFSET 2.33842 -0.294052 0.168128
                  }
                }
              }
              JOINT lPinky1
              {
                OFFSET 8.27202 -0.0477905 -0.4584
                CHANNELS 3 Zrotation Xrotation Yrotation
                JOINT lPinky2
                {
                  OFFSET 1.82734 -0.647385 -0.700984
                  CHANNELS 3 Zrotation Xrotation Yrotation
                  End Site
                  {
                    OFFSET 1.69225 -0.51767 -0.607171
                  }
                }
              }
            }
          }
        }
      }
    }
  }
  JOINT rButtock
  {
    OFFSET -8.77824 4.35084 1.2192
    CHANNELS 3 Zrotation Xrotation Yrotation
    JOINT rThigh
    {
      OFFSET 0 -1.70687 -2.19456
      CHANNELS 3 Zrotation Xrotation Yrotation
      JOINT rShin
      {
        OFFSET 0 -36.8199 0.73152
        CHANNELS 3 Zrotation Xrotation Yrotation
        JOINT rFoot
        {
          OFFSET 0.73152 -45.1104 -5.12064
          CHANNELS 3 Zrotation Xrotation Yrotation
          End Site
          {
            OFFSET -1.1221 -3.69964 12.103
          }
        }
      }
    }
  }
  JOINT lButtock
  {
    OFFSET 8.77824 4.35084 1.2192
    CHANNELS 3 Zrotation Xrotation Yrotation
    JOINT lThigh
    {
      OFFSET 0 -1.70687 -2.19456
      CHANNELS 3 Zrotation Xrotation Yrotation
      JOINT lShin
      {
        OFFSET 0 -36.8199 0.73152
        CHANNELS 3 Zrotation Xrotation Yrotation
        JOINT lFoot
        {
          OFFSET -0.73152 -45.1104 -5.12064
          CHANNELS 3 Zrotation Xrotation Yrotation
          End Site
          {
            OFFSET 1.1221 -3.69964 12.103
          }
        }
      }
    }
  }
}
MOTION
Frames:	4
Frame Time:	0.03333
-108.9639 73.4632 -66.2173 -175.743382 36.199815 -174.89253 5.927557 0.205274 91.976305 -10.129647 4.176789 -79.64967 20.760178 14.864556 90.174561 -27.394332 4.612069 -99.277519 -4.111304 0.144165 -4.014844 7.076082 1.346217 21.517681 6.698739 0.092669 0.281273 4.639439 -51.242368 0.997593 31.468037 14.488443 19.404494 -31.82165 61.543308 15.492847 -171.056852 -13.13503 86.265988 -115.277604 1.222688 30.711591 -3.818008 13.155884 7.145652 154.513647 -76.433972 91.935146 13.123267 0.378296 -4.1963 -6.763239 -3.568734 26.219479 6.164802 -88.181196 -5.265112 -168.756023 -24.753744 -168.711272 -19.617853 -17.481128 -12.914686 5.380119 20.500938 35.797486 147.407049 39.617822 -146.769808 -30.280493 15.431039 -4.100968 -160.914657 -14.860699 155.697793 13.521036 42.556934 5.309632 -175.374887 -0.013606 -77.911861 138.384105 7.126476 -43.51402 165.658938 -45.922828 -115.941543 -124.290077 -72.144031 -13.985902 167.647857 22.088561 -133.440616 -15.059289 -56.306207 -19.952362 75.61775 63.190734 -93.570057 115.845672 -58.323313 133.952182 62.84274 -65.919716 72.869848 31.656004 -53.543372 -11.809161 -38.557544 1.512919 -17.485046 29.311455 -32.660592 17.370996 49.859142 67.85448 175.448805 -100.472191 80.35828 -160.754778 144.047596 59.758056 40.014421 -150.133683 37.007241 -0.0 -31.984452 52.499941 -29.603477 -2.098269 -65.044362 75.184261
-108.70729999999999 72.5678 -66.6716 -174.202948 34.381574 -173.244193 8.135042 -3.897134 112.089423 -4.382203 6.083959 -100.108399 -1.396482 10.606402 -74.265208 23.752659 7.665873 60.953767 -11.594404 1.977476 -19.294844 7.509417 -0.230111 -3.505315 8.967874 -32.936918 -5.739691 6.002849 -30.75763 4.883114 169.532923 -47.880994 111.475784 161.866228 -26.841615 134.820592 -11.223305 14.201611 4.556571 -123.41789 -21.458135 131.26096 10.66831 -22.467897 -0.930544 179.252966 -56.011631 122.357345 -29.766499 53.274033 29.069914 -7.739484 -20.589531 -3.774818 -158.129875 -6.143865 162.966674 -11.034575 -34.298775 -1.391978 44.165562 84.198281 -8.143266 -130.117045 -23.73194 -85.973374 164.834893 -30.657029 -161.949736 -36.77583 -27.492918 -32.807435 -1.565101 -2.798285 59.232362 -163.269817 -23.657597 -135.476373 159.126964 19.411009 -68.484015 -39.372929 -28.752481 -58.298204 161.045645 -24.84447 -115.450642 102.253264 -0.866235 -131.236623 51.945931 51.449686 -30.339677 153.596893 1.637296 -129.908275 -4.988336 -26.728145 -6.46898 60.936968 70.136184 -49.629153 -19.325767 -18.691827 -3.757565 93.102796 -43.462699 39.547663 0.070519 -1.742322 2.318084 -19.15313 -34.350235 -31.614059 -6.56962 59.963748 38.678786 -33.104545 12.699529 -29.113275 -75.503048 60.255098 -51.325624 124.437312 30.58792 70.765578 26.777717 67.049952 138.747296 -41.584362 7.95824 -161.271096
-108.7397 71.7599 -66.6905 -174.965849 34.303244 -173.665444 10.0323 -8.392456 -180.0 4.794001 0.706477 -169.656578 0.342758 17.467235 -134.046688 14.380771 24.122371 117.649984 -8.449109 0.841323 -11.352723 4.707069 -1.18878 -28.333237 1.607251 1.561506 2.454704 17.526493 -75.39396 4.267441 36.737218 2.739314 10.399269 -131.510488 78.514943 105.759784 -155.371974 5.280127 89.30726 15.225454 -20.931472 34.549474 -140.419689 13.96003 106.232613 -0.550874 29.84729 5.022218 3.195365 -1.16407 -0.100037 -75.646087 62.591449 54.526303 -93.842515 58.607412 95.654157 -132.023071 34.385229 134.887695 1.678266 36.897697 10.939099 -30.030785 7.20842 2.894267 -5.745274 -44.417503 2.37473 -167.212051 -36.188471 -171.11062 176.548911 0.502562 156.417359 2.269285 25.331144 3.526528 4.038327 -22.119596 -8.407359 118.901933 -44.893081 -172.457919 -80.219164 -72.580318 -43.16287 95.406074 6.316001 -79.339982 91.580412 61.562799 -72.851533 -92.986426 -70.975652 -64.849821 -7.069478 -37.164199 -1.68447 -147.734846 -73.680197 -151.572448 -22.903427 82.541611 -45.808609 63.645269 -1.754156 90.076649 4.26003 -2.326918 -5.3179 -17.861837 -36.354116 -28.530279 -10.361538 62.709496 102.27649 -125.417955 -54.155192 147.224755 79.897186 27.367531 50.642931 -87.002789 7.50371 153.189372 23.329424 -57.214354 -179.301204 63.497351 19.84055 7.817406
-108.90740000000001 71.2599 -66.5768 -175.711643 33.81122 -174.165108 6.488743 -7.397364 87.990253 -1.688806 0.14425 -80.015015 -5.879692 15.551578 -107.426923 22.615486 16.784474 87.16942 -3.111166 -0.059372 2.186014 3.233315 -1.251586 -42.313203 39.99784 -88.114864 18.916817 -165.248878 37.592365 168.983731 136.739293 -0.639474 150.865082 179.477997 40.097818 144.962245 -118.811351 35.624644 68.590306 -31.310206 14.345296 49.151025 -4.97914 -22.756729 -5.841986 147.889782 -51.111188 79.346853 -164.083476 -23.328989 149.788396 -15.193371 48.532541 27.208665 -83.559813 63.194488 86.860595 -80.434323 61.465059 93.318985 -162.02832 32.943685 -145.281969 -13.414726 -19.316891 -32.138347 -9.642943 -87.519273 9.444218 93.277786 63.933777 -86.721003 -178.065055 8.731901 -118.97867 -165.652193 -17.760782 -142.525599 90.46984 36.26978 -33.479636 124.737263 -51.778683 -96.851289 -81.357279 -77.084637 -44.98053 151.535787 -23.322602 -107.225771 151.36366 31.557224 -135.425895 172.63863 -34.542491 -146.926724 -5.477621 -2.482962 -6.480136 173.987037 62.301881 -161.587052 -44.612984 60.47484 -16.584764 154.054687 17.838638 82.002731 25.038781 -1.672684 6.003016 -48.440545 -31.928647 -31.752899 11.120928 64.967576 94.230391 -150.901238 -16.215759 130.848197 -44.570154 19.349646 -44.768504 77.272235 1.301422 -0.722454 -67.406163 28.880226 -67.878635 -84.485671 40.279878 -179.126324
